<?xml version="1.0" encoding="UTF-8" standalone="no"?>
<!DOCTYPE svg PUBLIC "-//W3C//DTD SVG 1.1//EN"
 "http://www.w3.org/Graphics/SVG/1.1/DTD/svg11.dtd">
<!-- Generated by graphviz version 15.0.0 (20260523.1842)
 -->
<!-- Title: G Pages: 1 -->
<svg width="784pt" height="429pt"
 viewBox="0.00 0.00 784.00 429.00" xmlns="http://www.w3.org/2000/svg" xmlns:xlink="http://www.w3.org/1999/xlink">
<g id="graph0" class="graph" transform="scale(1 1) rotate(0) translate(20.16 408.56)">
<title>G</title>
<polygon fill="#f8fafc" stroke="none" points="-20.16,20.16 -20.16,-408.56 764.04,-408.56 764.04,20.16 -20.16,20.16"/>
<text xml:space="preserve" text-anchor="start" x="219.69" y="-368.3" font-family="Architects Daughter" font-weight="bold" font-size="18.00">ratelimit/redis &#45; Token Bucket Flow</text>
<text xml:space="preserve" text-anchor="start" x="281.94" y="-356.95" font-family="Comic Mono" font-size="11.00">source&#45;grounded README diagram</text>
<!-- caller -->
<g id="node1" class="node">
<title>caller</title>
<path fill="#ebf4ff" stroke="#93c5fd" stroke-width="1.8" d="M144.72,-146.9C144.72,-146.9 12,-146.9 12,-146.9 6,-146.9 0,-140.9 0,-134.9 0,-134.9 0,-115.5 0,-115.5 0,-109.5 6,-103.5 12,-103.5 12,-103.5 144.72,-103.5 144.72,-103.5 150.72,-103.5 156.72,-109.5 156.72,-115.5 156.72,-115.5 156.72,-134.9 156.72,-134.9 156.72,-140.9 150.72,-146.9 144.72,-146.9"/>
<text xml:space="preserve" text-anchor="start" x="54.74" y="-123.6" font-family="Architects Daughter" font-weight="bold" font-size="18.00" fill="#1e293b">Caller</text>
<text xml:space="preserve" text-anchor="start" x="9.36" y="-112.25" font-family="Comic Mono" font-size="11.00" fill="#1e293b">Allow(ctx, key, tokens)</text>
</g>
<!-- validate -->
<g id="node2" class="node">
<title>validate</title>
<path fill="#faf5ff" stroke="#c4b5fd" stroke-width="1.8" d="M309.44,-152.4C309.44,-152.4 224.72,-152.4 224.72,-152.4 218.72,-152.4 212.72,-146.4 212.72,-140.4 212.72,-140.4 212.72,-110 212.72,-110 212.72,-104 218.72,-98 224.72,-98 224.72,-98 309.44,-98 309.44,-98 315.44,-98 321.44,-104 321.44,-110 321.44,-110 321.44,-140.4 321.44,-140.4 321.44,-146.4 315.44,-152.4 309.44,-152.4"/>
<text xml:space="preserve" text-anchor="start" x="236.33" y="-129.1" font-family="Architects Daughter" font-weight="bold" font-size="18.00" fill="#1e293b">Validate</text>
<text xml:space="preserve" text-anchor="start" x="237.08" y="-117.75" font-family="Comic Mono" font-size="11.00" fill="#1e293b">key length</text>
<text xml:space="preserve" text-anchor="start" x="222.08" y="-106.75" font-family="Comic Mono" font-size="11.00" fill="#1e293b">tokens &lt;= burst</text>
</g>
<!-- caller&#45;&gt;validate -->
<g id="edge1" class="edge">
<title>caller&#45;&gt;validate</title>
<path fill="none" stroke="#475569" stroke-width="2" d="M157.57,-125.2C157.57,-125.2 200.82,-125.2 200.82,-125.2"/>
<polygon fill="#475569" stroke="#475569" stroke-width="2" points="200.82,-128 208.82,-125.2 200.82,-122.4 200.82,-128"/>
</g>
<!-- script -->
<g id="node3" class="node">
<title>script</title>
<path fill="#fff7ed" stroke="#fcd34d" stroke-width="1.8" d="M525.91,-202.4C525.91,-202.4 389.44,-202.4 389.44,-202.4 383.44,-202.4 377.44,-196.4 377.44,-190.4 377.44,-190.4 377.44,-160 377.44,-160 377.44,-154 383.44,-148 389.44,-148 389.44,-148 525.91,-148 525.91,-148 531.91,-148 537.91,-154 537.91,-160 537.91,-160 537.91,-190.4 537.91,-190.4 537.91,-196.4 531.91,-202.4 525.91,-202.4"/>
<text xml:space="preserve" text-anchor="start" x="386.8" y="-179.1" font-family="Architects Daughter" font-weight="bold" font-size="18.00" fill="#1e293b">Redis Lua Script</text>
<text xml:space="preserve" text-anchor="start" x="421.68" y="-167.75" font-family="Comic Mono" font-size="11.00" fill="#1e293b">TIME + HMGET</text>
<text xml:space="preserve" text-anchor="start" x="394.68" y="-156.75" font-family="Comic Mono" font-size="11.00" fill="#1e293b">atomic refill/consume</text>
</g>
<!-- validate&#45;&gt;script -->
<g id="edge2" class="edge">
<title>validate&#45;&gt;script</title>
<path fill="none" stroke="#475569" stroke-width="2" d="M266.88,-153.13C266.88,-165.54 266.88,-177.4 266.88,-177.4 266.88,-177.4 365.73,-177.4 365.73,-177.4"/>
<polygon fill="#475569" stroke="#475569" stroke-width="2" points="365.73,-180.2 373.73,-177.4 365.73,-174.6 365.73,-180.2"/>
</g>
<!-- rejected -->
<g id="node6" class="node">
<title>rejected</title>
<path fill="#fff1f2" stroke="#fda4af" stroke-width="1.8" d="M731.88,-54.4C731.88,-54.4 605.91,-54.4 605.91,-54.4 599.91,-54.4 593.91,-48.4 593.91,-42.4 593.91,-42.4 593.91,-12 593.91,-12 593.91,-6 599.91,0 605.91,0 605.91,0 731.88,0 731.88,0 737.88,0 743.88,-6 743.88,-12 743.88,-12 743.88,-42.4 743.88,-42.4 743.88,-48.4 737.88,-54.4 731.88,-54.4"/>
<text xml:space="preserve" text-anchor="start" x="603.27" y="-31.1" font-family="Architects Daughter" font-weight="bold" font-size="18.00" fill="#1e293b">Rejected Result</text>
<text xml:space="preserve" text-anchor="start" x="635.89" y="-19.75" font-family="Comic Mono" font-size="11.00" fill="#1e293b">retry after</text>
<text xml:space="preserve" text-anchor="start" x="632.89" y="-8.75" font-family="Comic Mono" font-size="11.00" fill="#1e293b">not an error</text>
</g>
<!-- validate&#45;&gt;rejected -->
<g id="edge3" class="edge">
<title>validate&#45;&gt;rejected</title>
<path fill="none" stroke="#ef4444" stroke-width="2" d="M322.32,-123.5C417.87,-123.5 603.88,-123.5 603.88,-123.5 603.88,-123.5 603.88,-66.08 603.88,-66.08"/>
<polygon fill="#ef4444" stroke="#ef4444" stroke-width="2" points="606.68,-66.08 603.88,-58.08 601.08,-66.08 606.68,-66.08"/>
</g>
<!-- bucket -->
<g id="node4" class="node">
<title>bucket</title>
<path fill="#fef9c3" stroke="#fde047" stroke-width="1.8" d="M719.88,-351.4C719.88,-351.4 617.91,-351.4 617.91,-351.4 611.91,-351.4 605.91,-345.4 605.91,-339.4 605.91,-339.4 605.91,-309 605.91,-309 605.91,-303 611.91,-297 617.91,-297 617.91,-297 719.88,-297 719.88,-297 725.88,-297 731.88,-303 731.88,-309 731.88,-309 731.88,-339.4 731.88,-339.4 731.88,-345.4 725.88,-351.4 719.88,-351.4"/>
<text xml:space="preserve" text-anchor="start" x="615.27" y="-328.1" font-family="Architects Daughter" font-weight="bold" font-size="18.00" fill="#1e293b">Bucket Hash</text>
<text xml:space="preserve" text-anchor="start" x="650.89" y="-316.75" font-family="Comic Mono" font-size="11.00" fill="#1e293b">tokens</text>
<text xml:space="preserve" text-anchor="start" x="638.89" y="-305.75" font-family="Comic Mono" font-size="11.00" fill="#1e293b">updated_ms</text>
</g>
<!-- script&#45;&gt;bucket -->
<g id="edge4" class="edge">
<title>script&#45;&gt;bucket</title>
<path fill="none" stroke="#475569" stroke-width="2" d="M430.88,-203.1C430.88,-248.47 430.88,-333.27 430.88,-333.27 430.88,-333.27 594.08,-333.27 594.08,-333.27"/>
<polygon fill="#475569" stroke="#475569" stroke-width="2" points="594.08,-336.07 602.08,-333.27 594.08,-330.47 594.08,-336.07"/>
</g>
<!-- allowed -->
<g id="node5" class="node">
<title>allowed</title>
<path fill="#ecfdf5" stroke="#6ee7b7" stroke-width="1.8" d="M725.88,-252.4C725.88,-252.4 611.91,-252.4 611.91,-252.4 605.91,-252.4 599.91,-246.4 599.91,-240.4 599.91,-240.4 599.91,-210 599.91,-210 599.91,-204 605.91,-198 611.91,-198 611.91,-198 725.88,-198 725.88,-198 731.88,-198 737.88,-204 737.88,-210 737.88,-210 737.88,-240.4 737.88,-240.4 737.88,-246.4 731.88,-252.4 725.88,-252.4"/>
<text xml:space="preserve" text-anchor="start" x="609.27" y="-229.1" font-family="Architects Daughter" font-weight="bold" font-size="18.00" fill="#1e293b">Allowed Result</text>
<text xml:space="preserve" text-anchor="start" x="641.89" y="-217.75" font-family="Comic Mono" font-size="11.00" fill="#1e293b">remaining</text>
<text xml:space="preserve" text-anchor="start" x="635.89" y="-206.75" font-family="Comic Mono" font-size="11.00" fill="#1e293b">reset after</text>
</g>
<!-- script&#45;&gt;allowed -->
<g id="edge6" class="edge">
<title>script&#45;&gt;allowed</title>
<path fill="none" stroke="#16a34a" stroke-width="2" d="M538.46,-186.85C576.17,-186.85 612.88,-186.85 612.88,-186.85 612.88,-186.85 612.88,-187.9 612.88,-187.9"/>
<polygon fill="#16a34a" stroke="#16a34a" stroke-width="2" points="610.08,-186.3 612.88,-194.3 615.68,-186.3 610.08,-186.3"/>
</g>
<!-- script&#45;&gt;rejected -->
<g id="edge7" class="edge">
<title>script&#45;&gt;rejected</title>
<path fill="none" stroke="#f59e0b" stroke-width="2" d="M538.59,-164.55C574.54,-164.55 608.88,-164.55 608.88,-164.55 608.88,-164.55 608.88,-66.02 608.88,-66.02"/>
<polygon fill="#f59e0b" stroke="#f59e0b" stroke-width="2" points="611.68,-66.02 608.88,-58.02 606.08,-66.02 611.68,-66.02"/>
</g>
<!-- expire -->
<g id="node7" class="node">
<title>expire</title>
<path fill="#f0f9ff" stroke="#7dd3fc" stroke-width="1.8" d="M708.25,-153.4C708.25,-153.4 629.53,-153.4 629.53,-153.4 623.53,-153.4 617.53,-147.4 617.53,-141.4 617.53,-141.4 617.53,-111 617.53,-111 617.53,-105 623.53,-99 629.53,-99 629.53,-99 708.25,-99 708.25,-99 714.25,-99 720.25,-105 720.25,-111 720.25,-111 720.25,-141.4 720.25,-141.4 720.25,-147.4 714.25,-153.4 708.25,-153.4"/>
<text xml:space="preserve" text-anchor="start" x="634.02" y="-130.1" font-family="Architects Daughter" font-weight="bold" font-size="18.00" fill="#1e293b">PEXPIRE</text>
<text xml:space="preserve" text-anchor="start" x="626.89" y="-118.75" font-family="Comic Mono" font-size="11.00" fill="#1e293b">IdleTTL bounds</text>
<text xml:space="preserve" text-anchor="start" x="629.89" y="-107.75" font-family="Comic Mono" font-size="11.00" fill="#1e293b">inactive keys</text>
</g>
<!-- script&#45;&gt;expire -->
<g id="edge8" class="edge">
<title>script&#45;&gt;expire</title>
<path fill="none" stroke="#7c3aed" stroke-width="2" d="M538.73,-175.7C598.29,-175.7 668.88,-175.7 668.88,-175.7 668.88,-175.7 668.88,-165.16 668.88,-165.16"/>
<polygon fill="#7c3aed" stroke="#7c3aed" stroke-width="2" points="671.68,-165.16 668.88,-157.16 666.08,-165.16 671.68,-165.16"/>
</g>
<!-- bucket&#45;&gt;script -->
<g id="edge5" class="edge">
<title>bucket&#45;&gt;script</title>
<path fill="none" stroke="#475569" stroke-width="2" d="M605.05,-315.13C551.9,-315.13 484.88,-315.13 484.88,-315.13 484.88,-315.13 484.88,-214.21 484.88,-214.21"/>
<polygon fill="#475569" stroke="#475569" stroke-width="2" points="487.68,-214.21 484.88,-206.21 482.08,-214.21 487.68,-214.21"/>
</g>
</g>
</svg>
